<svg width="60" height="61" viewBox="0 0 60 61" fill="none" xmlns="http://www.w3.org/2000/svg">
<rect x="2" y="2" width="55.8381" height="57" stroke="#1D1D1D" stroke-width="4"/>
<path d="M21.1349 20.2524H21.1671C21.8024 20.2524 22.4122 20.5044 22.8615 20.9536L23.5626 21.6558C23.8727 21.9658 23.9499 22.4393 23.754 22.8315C23.7134 22.9128 23.6614 22.9885 23.6007 23.0562L16.1847 31.3286L15.8956 31.6509L16.174 31.9829L23.464 40.6753C23.597 40.8339 23.6993 41.016 23.7648 41.2124C23.9747 41.8422 23.7859 42.537 23.2863 42.9741L22.7238 43.4663C22.3727 43.7735 21.9217 43.9429 21.4552 43.9429C20.8902 43.9429 20.3533 43.6947 19.9874 43.2642L11.4991 33.2778C11.1494 32.8664 10.9572 32.3432 10.9572 31.8032C10.9572 31.2669 11.1469 30.7476 11.4923 30.3374L19.2443 21.1323C19.714 20.5746 20.4058 20.2526 21.1349 20.2524Z" fill="#1D1D1D" stroke="#1D1D1D"/>
<rect x="30.1285" y="19.6714" width="17.0095" height="4.22857" rx="0.5" fill="#1D1D1D" stroke="#1D1D1D"/>
<rect x="30.1285" y="40.5857" width="17.0095" height="4.22857" rx="0.5" fill="#1D1D1D" stroke="#1D1D1D"/>
<rect x="30.1285" y="30.1285" width="12.9429" height="4.22857" rx="0.5" fill="#1D1D1D" stroke="#1D1D1D"/>
</svg>
